<?xml version="1.0" encoding="utf-8"?>
<!-- Generator: Adobe Illustrator 27.8.1, SVG Export Plug-In . SVG Version: 6.00 Build 0)  -->
<svg version="1.1" id="Layer_1" xmlns="http://www.w3.org/2000/svg" xmlns:xlink="http://www.w3.org/1999/xlink" x="0px" y="0px"
	 width="40px" height="40px" viewBox="0 0 40 40" style="enable-background:new 0 0 40 40;" xml:space="preserve">
<style type="text/css">
	.st0{fill:#FFCC30;stroke:#7A5C00;stroke-width:0.5;stroke-miterlimit:10;}
</style>
<path class="st0" d="M3,27.1c0.2,0,0.3,0.1,0.4,0.5c1.1,2.3,2.1,4.6,3.1,6.9l0,0c0.3,0,0.5-0.2,0.7-0.3c-0.3-0.7-0.7-1.5-0.9-2.2
	c-0.1-0.1,0-0.2,0-0.2c0.4-0.2,0.8-0.4,1.2-0.5c0-0.1,0.1-0.1,0.1,0c0.3,0.7,0.7,1.5,0.9,2.2c0.3,0,0.5-0.2,0.7-0.3
	c-0.7-1.4-1.3-2.7-1.9-4.1c0-0.1,0-0.1,0-0.1c0.8-0.4,1.8-0.8,2.6-1.2c0.1,0,0.1,0,0.1,0c0.6,1.1,1,2.2,1.5,3.2l0.1,0
	c0.6-0.3,1.4-0.7,2.1-1c-0.2-0.5-0.4-0.9-0.7-1.5c0-0.1,0-0.1,0-0.1c0.3-0.1,0.5-0.2,0.8-0.4c0,0,0.1-0.1,0.1,0
	c0.3,0.5,0.5,1.2,0.9,1.8l0,0c0.3-0.2,0.7-0.3,1-0.5c-0.9-2.2-2-4.4-2.9-6.5c0-0.2,0.1-0.3,0.2-0.4l7.6-3.4c0-0.1,0-0.1,0.1-0.1
	l1.9,0.1l0.1-0.1l2.1-0.9c0.1-0.1,0.1-0.2,0.2-0.2l0.2-0.8c0-0.1,0-0.2,0.2-0.2c0.5-0.4,2.2-1.5,2.8-1.8c0.1-0.1,0.3,0,0.4,0
	c0.6,0.4,1.8,1.4,2.1,0.6c0-0.2,0.3-0.3,0.5-0.2c4.6,3.4,9.6,0.1,7.2-5.6c-2.3-6.2-8.9-6-9.5,0.6c0,0.2-0.3,0.3-0.4,0.3
	c-0.7-0.3-0.8,1.1-0.9,1.9c0,0.1-0.1,0.2-0.2,0.2l-3.2,0.9c-0.1,0-0.2,0-0.3-0.1l-0.7-0.5c-0.1,0-0.2,0-0.3,0l-2.1,0.9l-0.1,0.1
	l-1.2,1.6L19.5,16L1.7,23.9C0,24.6,1.4,27.9,3,27.1z M32,12.5c0-0.2,0-0.4-0.2-0.4c-2.6-1.1-1-4.2,1.3-4.8c1.8-0.6,4,0.6,3.3,2.7
	c0,0.2,0,0.4,0.2,0.4c1.1,0.5,1.6,1.6,1.1,2.8c-0.8,1.7-3.2,2.7-4.9,1.8C31.9,14.4,31.7,13.4,32,12.5z"/>
</svg>
