<?xml version="1.0" encoding="utf-8"?>
<!-- Generator: Adobe Illustrator 27.8.1, SVG Export Plug-In . SVG Version: 6.00 Build 0)  -->
<svg version="1.1" id="Layer_1" xmlns="http://www.w3.org/2000/svg" xmlns:xlink="http://www.w3.org/1999/xlink" x="0px" y="0px"
	 width="40px" height="40px" viewBox="0 0 40 40" style="enable-background:new 0 0 40 40;" xml:space="preserve">
<style type="text/css">
	.st0{fill:#FFFFFF;}
</style>
<path  class="st0" d="M29.2,4.8h-6.1c-0.6,0-1.1,0.5-1.1,1.1C22,6.5,22.5,7,23.1,7h6.1c0.6,0,1.1-0.5,1.1-1.1
	C30.3,5.3,29.8,4.8,29.2,4.8z"/>
<path class="st0" d="M36.1,11.8c0-0.6-0.1-1.4-0.3-2.3c-0.1-0.6-0.2-1.1-0.3-1.6c-0.1-0.5-0.7-0.9-1.2-0.7
	c-0.5,0.1-0.8,0.6-0.7,1.1c0.1,0.5,0.2,1,0.3,1.5c0.2,0.9,0.3,1.5,0.3,2c0,0.6-0.1,1.1-0.5,1.4c-0.4,0.3-1.1,0.5-2,0.5H13.1v-2.5
	c0-1.1-0.2-2-0.6-2.8c-0.4-0.8-0.9-1.4-1.6-1.9c-0.7-0.5-1.5-0.7-2.5-0.7c-0.9,0-1.7,0.2-2.4,0.7C5.4,7.1,4.9,7.7,4.5,8.6
	c-0.4,0.8-0.6,1.7-0.6,2.7c0,1.5,0.4,2.6,1.3,3.4C6,15.6,7.1,16,8.5,16h2.7v0.1c0,0.4-0.2,0.7-0.5,0.9c-0.3,0.2-0.8,0.4-1.4,0.6
	c-0.6,0.2-1.6,0.4-3.1,0.7l0,0c-0.6,0.1-1,0.7-0.8,1.3c0.1,0.6,0.7,0.9,1.3,0.8c0.2,0,0.5-0.1,0.7-0.1c1.5-0.3,2.7-0.6,3.5-0.9
	c0.8-0.3,1.4-0.7,1.7-1.2c0.4-0.5,0.5-1.2,0.5-2V16h18.5c1,0,1.8-0.2,2.5-0.6c0.7-0.4,1.2-0.9,1.5-1.5C36,13.2,36.1,12.5,36.1,11.8z
	 M11.2,13.8H8.5c-0.9,0-1.6-0.2-2-0.6c-0.4-0.4-0.6-1-0.6-1.9c0-1,0.2-1.7,0.7-2.3c0.5-0.6,1.1-0.9,2-0.9c0.9,0,1.6,0.3,2,0.8
	c0.5,0.6,0.7,1.3,0.7,2.4V13.8z"/>
<path class="st0" d="M12.4,24.8c0-0.7-0.6-1.2-1.2-1.2c-0.7,0-1.2,0.6-1.2,1.2c0,0.7,0.6,1.2,1.2,1.2C11.9,26,12.4,25.5,12.4,24.8
	z"/>
<path class="st0" d="M21.6,18.5c-0.5,0-1,0.4-1,1l0,8c0,1.1,0.1,2.1,0.4,2.8c0.3,0.8,0.7,1.3,1.3,1.8c0.6,0.4,1.5,0.6,2.6,0.6
	c0.5,0,0.9-0.1,1.4-0.3c0.4-0.2,0.8-0.5,1.2-0.9l0.1,0c1.3,0.7,2.2,1.1,2.9,1.3c0.6,0.2,1.2,0.4,1.9,0.4s1.2-0.2,1.7-0.5
	c0.5-0.4,1-0.9,1.3-1.7c0.3-0.8,0.5-1.8,0.5-3c0-1-0.2-1.9-0.5-2.7c-0.4-0.8-0.9-1.5-1.5-2c-0.7-0.5-1.4-0.8-2.3-0.8
	c-1.1,0-2,0.4-2.7,1.1c-0.8,0.7-1.3,1.7-1.7,3l-0.8,2.8c-0.1,0.3-0.2,0.6-0.5,0.8s-0.6,0.3-0.9,0.3c-0.7,0-1.3-0.1-1.6-0.2
	c-0.3-0.2-0.5-0.4-0.6-0.8c-0.1-0.4-0.2-1-0.2-1.9l0-8C22.5,18.9,22.1,18.5,21.6,18.5L21.6,18.5z M16.5,18.5c-0.5,0-1,0.4-1,1l0,8.6
	c0,1-0.1,1.7-0.4,2.3c-0.3,0.6-0.7,1-1.3,1.2c-0.6,0.3-1.5,0.4-2.6,0.4h-0.4c-1,0-1.9-0.2-2.5-0.6c-0.7-0.4-1.1-1-1.5-1.8
	c-0.3-0.7-0.5-1.6-0.5-2.6c0-0.3,0.1-0.8,0.1-1.3c0.1-0.7-0.5-1.2-1.1-1.1C5,24.6,4.7,25,4.6,25.4c-0.1,0.5-0.1,1-0.1,1.5
	c0,1.2,0.2,2.4,0.7,3.5c0.5,1.1,1.2,2,2.2,2.7c1,0.7,2.1,1,3.5,1h0.4c1.5,0,2.7-0.2,3.6-0.7c0.9-0.5,1.6-1.2,2-2.1
	c0.4-0.9,0.6-2,0.6-3.2l0-8.6C17.4,18.9,17,18.5,16.5,18.5L16.5,18.5z M33.5,30.4c-0.3,0.4-0.7,0.6-1.3,0.6c-0.4,0-0.9-0.1-1.4-0.3
	c-0.5-0.2-1.3-0.6-2.4-1.1l-0.2-0.1l0.6-2.3c0.2-0.8,0.6-1.5,1-1.9c0.4-0.4,0.9-0.6,1.5-0.6c0.8,0,1.4,0.3,1.8,0.9
	C33.8,26.2,34,27,34,28C34,29.2,33.8,30,33.5,30.4z"/>
</svg>
