<?xml version="1.0" encoding="utf-8"?>
<!-- Generator: Adobe Illustrator 27.8.1, SVG Export Plug-In . SVG Version: 6.00 Build 0)  -->
<svg version="1.1" id="Layer_1" xmlns="http://www.w3.org/2000/svg" xmlns:xlink="http://www.w3.org/1999/xlink" x="0px" y="0px"
	 width="64px" height="64px" viewBox="0 0 64 64" style="enable-background:new 0 0 64 64;" xml:space="preserve">
<style type="text/css">
	.st0{fill:#000000;}
</style>
<path class="st0" d="M32,0C14.3,0,0,14.3,0,32s14.3,32,32,32s32-14.3,32-32S49.7,0,32,0z M26.2,21c0-0.3,0.2-0.5,0.5-0.5h6.9
	c0.3,0,0.5,0.2,0.5,0.5v1.2c0,0.3-0.2,0.5-0.5,0.5h-4.1c-0.3,0-0.5,0.2-0.5,0.5v4.9c0,0.3,0.2,0.5,0.5,0.5h3.4
	c0.3,0,0.5,0.2,0.5,0.5v1.4c0,0.3-0.2,0.5-0.5,0.5h-3.4c-0.3,0-0.5,0.2-0.5,0.5v5.3c0,0.3,0.2,0.5,0.5,0.5h4c0.3,0,0.5,0.2,0.4,0.5
	l-0.3,1.5c-0.1,0.3-0.3,0.5-0.6,0.5h-6.3c-0.3,0-0.5-0.2-0.5-0.5V21z M15.9,21c0-0.3,0.2-0.5,0.5-0.5h8.2c0.3,0,0.5,0.2,0.5,0.5v1.4
	c0,0.3-0.2,0.5-0.5,0.5h-2.2c-0.3,0-0.5,0.2-0.5,0.5v16c0,0.3-0.2,0.5-0.5,0.5h-1.7c-0.3,0-0.5-0.2-0.5-0.5v-16
	c0-0.3-0.2-0.5-0.5-0.5h-2.3c-0.3,0-0.5-0.2-0.5-0.5V21z M5.5,21c0-0.3,0.2-0.5,0.5-0.5h8.2c0.3,0,0.5,0.2,0.5,0.5v4.8
	c0,0.3-0.2,0.5-0.5,0.5v0.1h-1.7c-0.3,0-0.5-0.2-0.5-0.5v-2.7c0-0.3-0.2-0.5-0.5-0.5H8.6c-0.3,0-0.5,0.2-0.5,0.5v2.7
	c0,0.3,0.2,0.7,0.4,0.9l5.8,5.8c0.2,0.2,0.4,0.6,0.4,0.9v6c0,0.3-0.2,0.5-0.5,0.5H6.1c-0.3,0-0.5-0.2-0.5-0.5v-5.3
	c0-0.3,0.2-0.5,0.5-0.5h1.7c0.3,0,0.5,0.2,0.5,0.5v3c0,0.3,0.2,0.5,0.5,0.5h2.8c0.3,0,0.5-0.2,0.5-0.5v-2.9c0-0.3-0.2-0.7-0.4-0.9
	l-5.8-5.8c-0.2-0.2-0.4-0.6-0.4-0.9V21z M58.5,42.8c0,0.3-0.2,0.5-0.5,0.5h-9c-0.2,0-0.5,0.2-0.6,0.5l-1.2,4.3
	c0,0.3-0.3,0.5-0.6,0.5h-1c-0.3,0-0.5-0.2-0.6-0.5l-2.3-11.5c-0.1-0.3-0.3-0.5-0.6-0.5h-2.4c-0.3,0-0.5-0.2-0.4-0.5l0.3-1.3
	c0.1-0.3,0.3-0.5,0.6-0.5h1.6c0.3,0,0.5-0.2,0.4-0.5l-1.8-9.1c-0.1-0.3-0.1-0.3-0.2,0l-5.4,26.7c-0.1,0.3-0.3,0.5-0.6,0.5h-1
	c-0.2,0-0.5-0.2-0.6-0.5l-1.9-7.1c0-0.3-0.3-0.5-0.6-0.5h-24c-0.3,0-0.5-0.2-0.5-0.5v-1.1c0-0.3,0.2-0.5,0.5-0.5h25.6
	c0.2,0,0.5,0.2,0.6,0.5l1.3,4.6c0,0.3,0.1,0.3,0.2,0l5-25.3c0.1-0.3,0.3-0.5,0.6-0.5h2c0.3,0,0.5,0.2,0.6,0.5l4.1,22
	c0.1,0.3,0.2,0.3,0.3,0l0.5-1.3c0.1-0.3,0.4-0.5,0.7-0.5H58c0.3,0,0.5,0.2,0.5,0.5V42.8z M58,39.8h-1.8c-0.3,0-0.5-0.2-0.5-0.5V28.8
	c0-0.3,0-0.3-0.1,0l-2.3,8.8c0,0.3-0.3,0.5-0.6,0.5h-0.2c-0.2,0-0.5-0.2-0.6-0.5l-2.3-8.7c0-0.3-0.1-0.3-0.1,0v10.4
	c0,0.3-0.2,0.5-0.5,0.5h-1.5c-0.3,0-0.5-0.2-0.5-0.5V21c0-0.3,0.2-0.5,0.5-0.5H49c0.2,0,0.5,0.2,0.6,0.5l3,10.3
	c0.1,0.3,0.2,0.3,0.3,0L55.8,21c0-0.3,0.3-0.5,0.6-0.5H58c0.3,0,0.5,0.2,0.5,0.5v18.3C58.5,39.6,58.3,39.8,58,39.8z"/>
</svg>
