<?xml version="1.0" encoding="utf-8"?>
<!-- Generator: Adobe Illustrator 27.8.1, SVG Export Plug-In . SVG Version: 6.00 Build 0)  -->
<svg version="1.1" id="Layer_1" xmlns="http://www.w3.org/2000/svg" xmlns:xlink="http://www.w3.org/1999/xlink" x="0px" y="0px"
	 width="86px" height="86px" viewBox="0 0 86 86" style="enable-background:new 0 0 86 86;" xml:space="preserve">
<style type="text/css">
	.st0{fill:#2C4A69;}
	.st1{fill:#FFFFFF;}
</style>
<path class="st0" d="M1.7,82.7c-0.8-0.6-1.4-1.4-1.7-2.5l2.1-0.8c0.2,0.6,0.5,1.1,0.9,1.5s0.9,0.6,1.5,0.6c0.5,0,0.9-0.1,1.3-0.4
	c0.4-0.3,0.5-0.6,0.5-1c0-0.4-0.2-0.8-0.5-1.1c-0.3-0.3-0.9-0.6-1.8-0.9l-0.7-0.3c-0.8-0.3-1.4-0.7-2-1.2c-0.5-0.6-0.8-1.3-0.8-2.2
	c0-0.6,0.2-1.2,0.5-1.7c0.3-0.5,0.8-0.9,1.4-1.2c0.6-0.3,1.3-0.4,2-0.4c1.1,0,1.9,0.3,2.6,0.8c0.6,0.5,1.1,1.1,1.3,1.8l-2,0.8
	c-0.1-0.4-0.3-0.7-0.6-0.9c-0.3-0.3-0.7-0.4-1.2-0.4s-0.9,0.1-1.2,0.3c-0.3,0.2-0.5,0.5-0.5,0.9s0.2,0.7,0.5,0.9
	c0.3,0.3,0.8,0.5,1.5,0.7l0.8,0.3c1,0.4,1.8,0.8,2.4,1.4s0.8,1.4,0.8,2.3c0,0.8-0.2,1.4-0.6,2c-0.4,0.6-0.9,0.9-1.6,1.2
	c-0.6,0.3-1.3,0.4-2,0.4C3.4,83.6,2.5,83.3,1.7,82.7z"/>
<path class="st0" d="M12,83.3c-0.4-0.1-0.6-0.3-0.9-0.5c-0.5-0.5-0.8-1.2-0.8-2.1v-3.8H8.8V75h1.5v-2.4h2.2V75h2.1v1.9h-2.1v3.4
	c0,0.4,0.1,0.7,0.3,0.9c0.2,0.2,0.4,0.3,0.8,0.3c0.2,0,0.4,0,0.5-0.1c0.1-0.1,0.3-0.2,0.5-0.3v2.1c-0.5,0.2-1,0.3-1.5,0.3
	C12.7,83.5,12.3,83.4,12,83.3z"/>
<path class="st0" d="M17.2,83c-0.7-0.4-1.2-0.9-1.6-1.6S15,80,15,79.2c0-0.8,0.2-1.6,0.6-2.3c0.4-0.7,0.9-1.3,1.6-1.7
	c0.7-0.4,1.4-0.6,2.2-0.6c0.9,0,1.6,0.2,2.3,0.6c0.7,0.4,1.1,0.9,1.5,1.6c0.3,0.7,0.5,1.4,0.5,2.2c0,0.3,0,0.5-0.1,0.7h-6.3
	c0.1,0.7,0.4,1.2,0.8,1.5c0.4,0.4,0.9,0.5,1.5,0.5c0.5,0,0.9-0.1,1.3-0.3c0.4-0.2,0.7-0.5,0.9-0.9l1.8,0.9c-0.9,1.5-2.2,2.3-3.9,2.3
	C18.6,83.6,17.9,83.4,17.2,83z M21.4,78.1c0-0.3-0.1-0.5-0.3-0.8c-0.2-0.3-0.4-0.5-0.7-0.7c-0.3-0.2-0.7-0.3-1.1-0.3
	c-0.5,0-1,0.2-1.3,0.5c-0.4,0.3-0.6,0.7-0.8,1.2L21.4,78.1L21.4,78.1z"/>
<path class="st0" d="M24.8,82.8c-0.6-0.5-0.9-1.2-0.9-2.1c0-0.6,0.2-1.1,0.5-1.5c0.3-0.4,0.7-0.8,1.2-1c0.5-0.2,1.1-0.4,1.7-0.4
	c0.9,0,1.6,0.1,2.3,0.4v-0.4c0-0.5-0.2-0.8-0.5-1.1c-0.4-0.3-0.8-0.4-1.4-0.4c-0.4,0-0.8,0.1-1.2,0.3c-0.4,0.2-0.7,0.4-0.9,0.7
	l-1.5-1.1c0.4-0.5,0.9-0.9,1.6-1.2c0.6-0.3,1.3-0.4,2-0.4c1.3,0,2.3,0.3,2.9,0.9c0.7,0.6,1,1.5,1,2.6v5.2h-2.2v-0.9h-0.1
	c-0.3,0.3-0.6,0.6-1,0.8c-0.4,0.2-0.9,0.3-1.5,0.3C26,83.6,25.3,83.3,24.8,82.8z M28.9,81.3c0.4-0.4,0.6-0.9,0.6-1.4
	c-0.6-0.3-1.2-0.4-1.8-0.4c-1.1,0-1.7,0.4-1.7,1.3c0,0.3,0.1,0.6,0.4,0.8c0.2,0.2,0.6,0.3,1.1,0.3C28.1,81.9,28.6,81.7,28.9,81.3z"
	/>
<path class="st0" d="M32.7,74.9h2.1V76h0.1c0.3-0.4,0.6-0.7,1.1-1c0.5-0.3,1-0.4,1.5-0.4c0.6,0,1.1,0.1,1.6,0.4
	c0.4,0.3,0.8,0.6,1,1.1c0.3-0.4,0.7-0.8,1.1-1.1c0.5-0.3,1.1-0.4,1.7-0.4c1,0,1.7,0.3,2.2,0.9s0.8,1.4,0.8,2.4v5.4h-2.2v-5
	c0-0.5-0.1-0.9-0.4-1.2c-0.3-0.3-0.6-0.4-1-0.4c-0.6,0-1,0.2-1.4,0.7c-0.4,0.5-0.5,1-0.5,1.8v4.2h-2.2v-5c0-0.5-0.1-0.9-0.4-1.2
	c-0.3-0.3-0.6-0.4-1.1-0.4s-1,0.2-1.3,0.7c-0.3,0.5-0.5,1-0.5,1.8v4.2h-2.2C32.7,83.5,32.7,74.9,32.7,74.9z"/>
<path class="st0" d="M49,71.5h4.1c0.8,0,1.5,0.2,2.1,0.5s1.1,0.8,1.5,1.3c0.4,0.6,0.5,1.2,0.5,2c0,0.8-0.2,1.4-0.5,2
	c-0.4,0.6-0.8,1-1.5,1.3C54.6,78.8,54,79,53.2,79h-2v4.3h-2.3L49,71.5L49,71.5z M53.3,76.9c0.6,0,1-0.2,1.3-0.5s0.5-0.7,0.5-1.2
	c0-0.5-0.2-0.8-0.5-1.1s-0.8-0.5-1.3-0.5h-2v3.2H53.3z"/>
<path class="st0" d="M58.7,82.7c-0.5-0.6-0.8-1.5-0.8-2.7v-5.1h2.2v4.8c0,0.6,0.1,1,0.4,1.4c0.3,0.3,0.6,0.5,1.1,0.5
	c0.6,0,1.1-0.2,1.5-0.7c0.4-0.5,0.6-1,0.6-1.7v-4.3h2.2v8.4h-2.1v-1.1h-0.1c-0.3,0.4-0.6,0.7-1.1,1c-0.5,0.2-1,0.4-1.5,0.4
	C60.1,83.6,59.3,83.3,58.7,82.7z"/>
<path class="st0" d="M67,71.5h2.2v11.8H67V71.5z"/>
<path class="st0" d="M71.2,83c-0.6-0.4-1.1-1-1.3-1.7l2-0.9c0.2,0.4,0.4,0.7,0.8,0.9c0.3,0.2,0.7,0.3,1.1,0.3s0.7-0.1,1-0.2
	c0.3-0.1,0.4-0.3,0.4-0.6s-0.1-0.5-0.4-0.6c-0.2-0.1-0.6-0.3-1.1-0.4l-1-0.2c-0.7-0.2-1.3-0.5-1.7-0.9c-0.4-0.4-0.7-1-0.7-1.7
	c0-0.5,0.1-0.9,0.4-1.3s0.7-0.7,1.2-0.9c0.5-0.2,1.1-0.3,1.7-0.3c1.8,0,2.9,0.6,3.4,1.9l-1.8,0.8c-0.3-0.6-0.9-0.9-1.6-0.9
	c-0.4,0-0.7,0.1-0.9,0.2c-0.2,0.1-0.3,0.3-0.3,0.5c0,0.4,0.4,0.7,1.1,0.9l1.3,0.3c0.8,0.2,1.5,0.5,1.9,1c0.4,0.4,0.6,1,0.6,1.6
	c0,0.5-0.2,1-0.5,1.4s-0.8,0.7-1.3,1c-0.6,0.2-1.2,0.4-1.8,0.4C72.6,83.6,71.8,83.4,71.2,83z"/>
<path class="st0" d="M79.7,83c-0.7-0.4-1.2-0.9-1.6-1.6c-0.4-0.7-0.6-1.5-0.6-2.3c0-0.8,0.2-1.6,0.6-2.3c0.4-0.7,0.9-1.3,1.6-1.7
	c0.7-0.4,1.4-0.6,2.2-0.6c0.9,0,1.6,0.2,2.3,0.6s1.1,0.9,1.4,1.6c0.3,0.7,0.5,1.4,0.5,2.2c0,0.3,0,0.5-0.1,0.7h-6.3
	c0.1,0.7,0.4,1.2,0.8,1.5c0.4,0.4,0.9,0.5,1.5,0.5c0.5,0,0.9-0.1,1.3-0.3s0.7-0.5,0.9-0.9l1.8,0.9c-0.9,1.5-2.2,2.3-3.9,2.3
	C81.1,83.6,80.3,83.4,79.7,83z M83.9,78.1c0-0.3-0.1-0.5-0.3-0.8c-0.2-0.3-0.4-0.5-0.7-0.7c-0.3-0.2-0.7-0.3-1.1-0.3
	c-0.5,0-1,0.2-1.3,0.5c-0.4,0.3-0.6,0.7-0.8,1.2L83.9,78.1L83.9,78.1z"/>
<circle class="st0" cx="42.8" cy="33.9" r="31.5"/>
<g>
	<g>
		<path class="st1" d="M25.3,28.3c0.3,0,0.5-0.2,0.5-0.5V23c0-0.3-0.2-0.5-0.5-0.5h-8.1c-0.3,0-0.5,0.2-0.5,0.5v5.6
			c0,0.3,0.2,0.7,0.4,0.9l5.7,5.7c0.2,0.2,0.4,0.6,0.4,0.9V39c0,0.3-0.2,0.5-0.5,0.5H20c-0.3,0-0.5-0.2-0.5-0.5V36
			c0-0.3-0.2-0.5-0.5-0.5h-1.7c-0.3,0-0.5,0.2-0.5,0.5v5.2c0,0.3,0.2,0.5,0.5,0.5h8c0.3,0,0.5-0.2,0.5-0.5v-5.9
			c0-0.3-0.2-0.7-0.4-0.9l-5.7-5.7c-0.2-0.2-0.4-0.6-0.4-0.9v-2.7c0-0.3,0.2-0.5,0.5-0.5h2.9c0.3,0,0.5,0.2,0.5,0.5v2.7
			c0,0.3,0.2,0.5,0.5,0.5L25.3,28.3C25.3,28.4,25.3,28.3,25.3,28.3z"/>
	</g>
	<g>
		<path class="st1" d="M36,23c0-0.3-0.2-0.5-0.5-0.5h-8.1c-0.3,0-0.5,0.2-0.5,0.5v1.4c0,0.3,0.2,0.5,0.5,0.5h2.3
			c0.3,0,0.5,0.2,0.5,0.5v15.7c0,0.3,0.2,0.5,0.5,0.5h1.7c0.3,0,0.5-0.2,0.5-0.5V25.4c0-0.3,0.2-0.5,0.5-0.5h2.2
			c0.3,0,0.5-0.2,0.5-0.5C36,24.4,36,23,36,23z"/>
	</g>
	<g>
		<path class="st1" d="M44.8,23c0-0.3-0.2-0.5-0.5-0.5h-6.8c-0.3,0-0.5,0.2-0.5,0.5v18c0,0.3,0.2,0.5,0.5,0.5h6.2
			c0.3,0,0.5-0.2,0.6-0.5l0.3-1.5c0.1-0.3-0.1-0.5-0.4-0.5h-3.9c-0.3,0-0.5-0.2-0.5-0.5v-5.2c0-0.3,0.2-0.5,0.5-0.5h3.3
			c0.3,0,0.5-0.2,0.5-0.5V31c0-0.3-0.2-0.5-0.5-0.5h-3.3c-0.3,0-0.5-0.2-0.5-0.5v-4.8c0-0.3,0.2-0.5,0.5-0.5h4
			c0.3,0,0.5-0.2,0.5-0.5C44.8,24.2,44.8,23,44.8,23z"/>
	</g>
	<g>
		<path class="st1" d="M50,22.6c-0.3,0-0.5,0.2-0.6,0.5l-4.9,24.9c-0.1,0.3-0.2,0.3-0.2,0L43,43.4c-0.1-0.3-0.4-0.5-0.6-0.5H17.3
			c-0.3,0-0.5,0.2-0.5,0.5v1.1c0,0.3,0.2,0.5,0.5,0.5h23.6c0.3,0,0.6,0.2,0.6,0.5l1.9,7c0.1,0.3,0.4,0.5,0.6,0.5h1
			c0.3,0,0.5-0.2,0.6-0.5l5.3-26.2c0.1-0.3,0.1-0.3,0.2,0l1.8,8.9c0.1,0.3-0.1,0.5-0.4,0.5h-1.6c-0.3,0-0.5,0.2-0.6,0.5l-0.3,1.3
			c-0.1,0.3,0.1,0.5,0.4,0.5h2.4c0.3,0,0.5,0.2,0.6,0.5l2.3,11.3c0.1,0.3,0.3,0.5,0.6,0.5h1c0.3,0,0.6-0.2,0.6-0.5l1.2-4.2
			c0.1-0.3,0.4-0.5,0.6-0.5h8.8c0.3,0,0.5-0.2,0.5-0.5v-1.1c0-0.3-0.2-0.5-0.5-0.5H58.1c-0.3,0-0.6,0.2-0.7,0.5l-0.5,1.3
			c-0.1,0.3-0.2,0.3-0.3,0l-4-21.6c-0.1-0.3-0.3-0.5-0.6-0.5H50z"/>
	</g>
	<g>
		<path class="st1" d="M58,22.6c-0.3,0-0.5,0.2-0.5,0.5v18c0,0.3,0.2,0.5,0.5,0.5h1.5c0.3,0,0.5-0.2,0.5-0.5V30.8
			c0-0.3,0.1-0.3,0.1,0l2.3,8.6c0.1,0.3,0.4,0.5,0.6,0.5h0.2c0.3,0,0.6-0.2,0.6-0.5l2.3-8.6c0.1-0.3,0.1-0.3,0.1,0V41
			c0,0.3,0.2,0.5,0.5,0.5h1.8c0.3,0,0.5-0.2,0.5-0.5V23c0-0.3-0.2-0.5-0.5-0.5h-1.6c-0.3,0-0.6,0.2-0.6,0.5l-2.9,10.1
			c-0.1,0.3-0.2,0.3-0.3,0L60.1,23c-0.1-0.3-0.4-0.5-0.6-0.5H58z"/>
	</g>
</g>
</svg>
