<?xml version="1.0" encoding="utf-8"?>
<!-- Generator: Adobe Illustrator 27.8.1, SVG Export Plug-In . SVG Version: 6.00 Build 0)  -->
<svg version="1.1" id="Layer_1" xmlns="http://www.w3.org/2000/svg" xmlns:xlink="http://www.w3.org/1999/xlink" x="0px" y="0px"
	 width="64px" height="64px" viewBox="0 0 64 64" style="enable-background:new 0 0 64 64;" xml:space="preserve">
<style type="text/css">
	.st0{fill:#2C4A69;}
	.st1{fill:#FFFFFF;}
</style>
<circle class="st0" cx="32" cy="32" r="32"/>
<g>
	<g>
		<path class="st1" d="M14.2,26.3c0.3,0,0.5-0.2,0.5-0.5V21c0-0.3-0.2-0.5-0.5-0.5H6c-0.3,0-0.5,0.2-0.5,0.5v5.7
			c0,0.3,0.2,0.7,0.4,0.9l5.8,5.8c0.2,0.2,0.4,0.6,0.4,0.9v2.9c0,0.3-0.2,0.5-0.5,0.5H8.8c-0.3,0-0.5-0.2-0.5-0.5v-3
			c0-0.3-0.2-0.5-0.5-0.5H6.1c-0.3,0-0.5,0.2-0.5,0.5v5.3c0,0.3,0.2,0.5,0.5,0.5h8.1c0.3,0,0.5-0.2,0.5-0.5v-6
			c0-0.3-0.2-0.7-0.4-0.9l-5.8-5.8c-0.2-0.2-0.4-0.6-0.4-0.9v-2.7c0-0.3,0.2-0.5,0.5-0.5h2.9c0.3,0,0.5,0.2,0.5,0.5v2.7
			c0,0.3,0.2,0.5,0.5,0.5H14.2z"/>
	</g>
	<g>
		<path class="st1" d="M25.1,21c0-0.3-0.2-0.5-0.5-0.5h-8.2c-0.3,0-0.5,0.2-0.5,0.5v1.4c0,0.3,0.2,0.5,0.5,0.5h2.3
			c0.3,0,0.5,0.2,0.5,0.5v16c0,0.3,0.2,0.5,0.5,0.5h1.7c0.3,0,0.5-0.2,0.5-0.5v-16c0-0.3,0.2-0.5,0.5-0.5h2.2c0.3,0,0.5-0.2,0.5-0.5
			V21z"/>
	</g>
	<g>
		<path class="st1" d="M34.1,21c0-0.3-0.2-0.5-0.5-0.5h-6.9c-0.3,0-0.5,0.2-0.5,0.5v18.3c0,0.3,0.2,0.5,0.5,0.5H33
			c0.3,0,0.5-0.2,0.6-0.5l0.3-1.5c0.1-0.3-0.1-0.5-0.4-0.5h-4c-0.3,0-0.5-0.2-0.5-0.5v-5.3c0-0.3,0.2-0.5,0.5-0.5h3.4
			c0.3,0,0.5-0.2,0.5-0.5v-1.4c0-0.3-0.2-0.5-0.5-0.5h-3.4c-0.3,0-0.5-0.2-0.5-0.5v-4.9c0-0.3,0.2-0.5,0.5-0.5h4.1
			c0.3,0,0.5-0.2,0.5-0.5V21z"/>
	</g>
	<g>
		<path class="st1" d="M39.4,20.5c-0.3,0-0.5,0.2-0.6,0.5l-5,25.3c-0.1,0.3-0.2,0.3-0.2,0l-1.3-4.6c-0.1-0.3-0.4-0.5-0.6-0.5H6.1
			c-0.3,0-0.5,0.2-0.5,0.5v1.1c0,0.3,0.2,0.5,0.5,0.5h24c0.3,0,0.6,0.2,0.6,0.5l1.9,7.1c0.1,0.3,0.4,0.5,0.6,0.5h1
			c0.3,0,0.5-0.2,0.6-0.5l5.4-26.7c0.1-0.3,0.1-0.3,0.2,0l1.8,9.1c0.1,0.3-0.1,0.5-0.4,0.5h-1.6c-0.3,0-0.5,0.2-0.6,0.5l-0.3,1.3
			c-0.1,0.3,0.1,0.5,0.4,0.5h2.4c0.3,0,0.5,0.2,0.6,0.5l2.3,11.5c0.1,0.3,0.3,0.5,0.6,0.5h1c0.3,0,0.6-0.2,0.6-0.5l1.2-4.3
			c0.1-0.3,0.4-0.5,0.6-0.5H58c0.3,0,0.5-0.2,0.5-0.5v-1.1c0-0.3-0.2-0.5-0.5-0.5H47.6c-0.3,0-0.6,0.2-0.7,0.5l-0.5,1.3
			c-0.1,0.3-0.2,0.3-0.3,0L42,21c-0.1-0.3-0.3-0.5-0.6-0.5H39.4z"/>
	</g>
	<g>
		<path class="st1" d="M47.5,20.5c-0.3,0-0.5,0.2-0.5,0.5v18.3c0,0.3,0.2,0.5,0.5,0.5H49c0.3,0,0.5-0.2,0.5-0.5V28.9
			c0-0.3,0.1-0.3,0.1,0l2.3,8.7c0.1,0.3,0.4,0.5,0.6,0.5h0.2c0.3,0,0.6-0.2,0.6-0.5l2.3-8.8c0.1-0.3,0.1-0.3,0.1,0v10.5
			c0,0.3,0.2,0.5,0.5,0.5H58c0.3,0,0.5-0.2,0.5-0.5V21c0-0.3-0.2-0.5-0.5-0.5h-1.6c-0.3,0-0.6,0.2-0.6,0.5l-2.9,10.3
			c-0.1,0.3-0.2,0.3-0.3,0l-3-10.3c-0.1-0.3-0.4-0.5-0.6-0.5H47.5z"/>
	</g>
</g>
</svg>
