<?xml version="1.0" encoding="utf-8"?>
<!-- Generator: Adobe Illustrator 27.8.1, SVG Export Plug-In . SVG Version: 6.00 Build 0)  -->
<svg version="1.1" id="Layer_1" xmlns="http://www.w3.org/2000/svg" xmlns:xlink="http://www.w3.org/1999/xlink" x="0px" y="0px"
	 width="40px" height="40px" viewBox="0 0 40 40" style="enable-background:new 0 0 40 40;" xml:space="preserve">
<style type="text/css">
	.st0{fill:#F2F2F2;}
	.st1{fill:#FFBD3F;}
</style>
<path d="M37,19.5C37,29.1,29.1,37,19.5,37S2,29.1,2,19.5C2,9.8,9.8,2,19.5,2C29.1,2,37,9.8,37,19.5"/>
<path class="st0" d="M17.2,32.9l3.4-3.4L14.1,23c-0.3-0.3-0.6-0.6-0.7-1c-0.4-0.8-0.5-2,0.4-2.9c1.1-1.1,2.6-0.6,4,0.8l6.3,6.3
	l3.4-3.4l-6.6-6.6c-0.3-0.3-0.6-0.7-0.8-1c-0.4-0.9-0.4-2,0.4-2.8c1.1-1.1,2.6-0.7,4.2,0.9l6.1,6.1l3.4-3.4l-6.6-6.6
	c-3.4-3.4-6.5-3.2-8.7-1.1c-0.8,0.8-1.3,1.7-1.6,2.7c-0.2,0.9-0.3,1.9-0.1,2.8l0,0c-1.7-0.7-3.5-0.3-5,1.2c-1.9,1.9-1.9,4-1.6,5.2
	l-0.1,0.1l-1.7-1.4l-2.9,2.9c1,0.9,2.3,2.1,3.7,3.5C9.5,25.3,17.2,32.9,17.2,32.9z"/>
<path class="st1" d="M20,0C8.9,0,0,9,0,20s9,20,20,20s20-9,20-20l0,0C40,8.9,31,0,20,0z M19.9,4.3c8.6,0,15.7,7,15.7,15.6l0,0
	c0,8.7-7,15.7-15.7,15.7s-15.7-7-15.7-15.7C4.2,11.3,11.2,4.3,19.9,4.3L19.9,4.3z"/>
</svg>
