<?xml version="1.0" encoding="utf-8"?>
<!-- Generator: Adobe Illustrator 27.8.1, SVG Export Plug-In . SVG Version: 6.00 Build 0)  -->
<svg version="1.1" id="Layer_1" xmlns="http://www.w3.org/2000/svg" xmlns:xlink="http://www.w3.org/1999/xlink" x="0px" y="0px"
	 width="65px" height="65px" viewBox="0 0 65 65" style="enable-background:new 0 0 65 65;" xml:space="preserve">
<style type="text/css">
	.st0{fill:#000000;}
</style>
<path class="st0" d="M10.6,32.5H0V0h15.5C26,0,31.2,2.8,31.2,8v4.2c0,5.2-5.2,8.1-15.7,8.1h-4.9V32.5z M15.5,4.6h-4.9v11h4.9
	c3.5,0,5.2-0.8,5.2-3.1V7.7C20.6,5.4,19,4.6,15.5,4.6L15.5,4.6z"/>
<path class="st0" d="M65,20.3v4.2c0,5.1-5.2,8-15.3,8s-15.3-3-15.3-8V8c0-5.1,5.2-8,15.3-8S65,3,65,8v3.2h-9.6V7.8c0-2.3-2.1-3.1-5.4-3.1
	s-5.4,0.9-5.4,3.2V25c0,2.3,2.1,3.1,5.4,3.1s5.4-0.8,5.4-3.1v-4.5L65,20.3L65,20.3z"/>
<path class="st0" d="M12.6,47.5h11.2v9.7c0,5-4,7.7-11.9,7.7S0,62.1,0,57.3v-16c0-5,4-7.7,11.9-7.7s11.9,2.9,11.9,7.7v3h-7.5v-3.3
	c0-2.2-1.6-3-4.2-3c-2.6,0-4.2,0.9-4.2,3.1v16.6c0,2.2,1.6,3,4.2,3c2.6,0,4.2-0.8,4.2-3V52h-3.7V47.5L12.6,47.5z"/>
<path class="st0" d="M56.8,33.5H65L56.9,65h-7.5L45,47.6L40.8,65h-7.5l-8.8-31.5h8.2l4,16.9l3.8-16.9h8.2l4,16.9L56.8,33.5L56.8,33.5z"/>
</svg>
