<?xml version="1.0" encoding="utf-8"?>
<!-- Generator: Adobe Illustrator 27.8.1, SVG Export Plug-In . SVG Version: 6.00 Build 0)  -->
<svg version="1.1" id="Layer_1" xmlns="http://www.w3.org/2000/svg" xmlns:xlink="http://www.w3.org/1999/xlink" x="0px" y="0px"
	 width="65px" height="65px" viewBox="0 0 65 65" style="enable-background:new 0 0 65 65;" xml:space="preserve">
<style type="text/css">
	.st0{fill:#FFFFFF;}
</style>
<path class="st0" d="M27.4,44.8c0,0.6-0.1,1.3-0.4,1.9c-1.1,2.6-4,3.8-6.6,2.7l-4-1.6c0.7,1.5,2,2.7,3.5,3.4c3.5,1.5,7.5-0.2,9-3.7
	c0.7-1.7,0.7-3.6,0-5.2c-0.7-1.7-2-3-3.7-3.7c-1.7-0.7-3.5-0.7-5-0.1l4.1,1.7C26.2,41,27.4,42.9,27.4,44.8z"/>
<path class="st0" d="M51.1,24.5c0-4.5-3.6-8.1-8.1-8.1c-4.5,0-8.1,3.6-8.1,8.1c0,4.5,3.6,8.1,8.1,8.1C47.4,32.6,51.1,29,51.1,24.5z
	 M49.1,24.5c0,3.4-2.7,6.1-6.1,6.1c-3.4,0-6.1-2.7-6.1-6.1c0-3.4,2.7-6.1,6.1-6.1S49.1,21.1,49.1,24.5z"/>
<path class="st0" d="M64.5,32.5c0-17.7-14.3-32-32-32c-17,0-30.8,13.2-31.9,29.9c0,0,0,0,0,0v0l17.2,7.1c0.5-0.3,1-0.6,1.5-0.8
	c1.2-0.5,2.5-0.7,3.8-0.7l7.8-11.4l0-0.2h0c0-6.7,5.5-12.2,12.2-12.2c6.7,0,12.2,5.5,12.2,12.2c0,6.7-5.5,12.2-12.2,12.2l-0.3,0
	l-11.2,8c0,1.2-0.2,2.5-0.7,3.7c-1.9,4.5-7.1,6.7-11.6,4.8c-2.8-1.1-4.6-3.5-5.2-6.3l-12.1-5C5.9,55,18,64.5,32.5,64.5
	C50.1,64.5,64.5,50.2,64.5,32.5z"/>
<g>
</g>
</svg>
