<?xml version="1.0" encoding="utf-8"?>
<!-- Generator: Adobe Illustrator 27.8.1, SVG Export Plug-In . SVG Version: 6.00 Build 0)  -->
<svg version="1.1" id="Layer_1" xmlns="http://www.w3.org/2000/svg" xmlns:xlink="http://www.w3.org/1999/xlink" x="0px" y="0px"
	 width="65px" height="65px" viewBox="0 0 65 65" style="enable-background:new 0 0 65 65;" xml:space="preserve">
<style type="text/css">
	.st0{fill:#FFFFFF;}
</style>
<path class="st0" d="M32.4,0C15.5,0,1.6,6,0.1,13.8l18.1,3.4c1.5-0.5,3.1-0.7,4.9-0.7l8.5-5.1c-0.1-1.3,0.7-2.6,2.4-3.7
	c2.4-1.6,6.2-2.4,10.1-2.4c2.6-0.1,5.3,0.4,7.6,1.1c5.7,1.9,7,5.6,2.9,8.3c-2.6,1.7-6.8,2.5-10.9,2.4l-11.2,4
	c-0.1,0.8-0.7,1.6-1.7,2.3c-3,1.9-8.8,2.4-13,1c-1.8-0.6-3-1.5-3.6-2.4L1.3,19.5c1.2,1.8,3,3.5,5.5,5C2.5,26.9,0,30,0,33.3
	c0,3.2,2.4,6.2,6.6,8.7C2.4,44.3,0,47.3,0,50.6C0,58.6,14.5,65,32.5,65C50.4,65,65,58.6,65,50.6c0-3.2-2.4-6.2-6.6-8.6
	c4.1-2.4,6.6-5.4,6.6-8.7c0-3.3-2.5-6.4-6.8-8.8c4.2-2.6,6.8-5.8,6.8-9.2C64.9,6.8,50.4,0,32.4,0z M44,7.2c-2.6,0.1-5.2,0.6-6.8,1.7
	c-2.8,1.8-1.9,4.3,1.9,5.6s9.2,0.9,12-0.9s1.9-4.3-1.9-5.6C47.6,7.5,45.8,7.3,44,7.2L44,7.2z M44.2,8.1c3.8,0,6.8,1.4,6.8,3.1
	s-3,3.1-6.8,3.1s-6.8-1.4-6.8-3.1S40.4,8.1,44.2,8.1z M23,17.5c-0.8,0.1-1.6,0.1-2.3,0.2l4.6,0.9c2.8,0.5,4.2,2,3,3.3
	c-1.1,1.3-4.3,1.9-7.2,1.4l-4.5-0.9c0.5,0.5,1.2,0.9,2.2,1.2c3.2,1.1,7.8,0.8,10.2-0.8s1.6-3.7-1.6-4.7C26.1,17.7,24.5,17.5,23,17.5
	z M55.4,25.9v4.7c0,5.6-10.3,10.1-22.9,10.1c-12.6,0-22.9-4.5-22.9-10.1v-4.7c5.8,2.7,13.9,4.4,22.8,4.4
	C41.4,30.3,49.5,28.6,55.4,25.9L55.4,25.9z M55.4,43.5v4.5c0,5.6-10.3,10.1-22.9,10.1C19.9,58,9.6,53.5,9.6,47.9v-4.5
	c5.9,2.6,13.9,4.2,22.9,4.2S49.5,46.1,55.4,43.5z"/>
</svg>
