<?xml version="1.0" encoding="utf-8"?>
<!-- Generator: Adobe Illustrator 27.8.1, SVG Export Plug-In . SVG Version: 6.00 Build 0)  -->
<svg version="1.1" id="Layer_1" xmlns="http://www.w3.org/2000/svg" xmlns:xlink="http://www.w3.org/1999/xlink" x="0px" y="0px"
	 width="616px" height="353px" viewBox="0 0 616 353" style="enable-background:new 0 0 616 353;" xml:space="preserve">
<style type="text/css">
	.st0{opacity:5.000000e-02;fill:#FFFFFF;}
	.st1{opacity:0.2;fill:#FFFFFF;}
</style>
<rect class="st0" width="616" height="353"/>
<path class="st1" d="M207.1,273.5c-2-1.4-3.4-3.4-4.1-6l5-2c0.5,1.4,1.2,2.7,2.2,3.6s2.2,1.4,3.6,1.4c1.2,0,2.2-0.2,3.1-0.9
	c0.9-0.7,1.2-1.4,1.2-2.4c0-0.9-0.5-2-1.2-2.7s-2.2-1.4-4.3-2.2l-1.6-0.7c-2-0.7-3.4-1.6-4.8-2.9c-1.2-1.4-2-3.1-2-5.2
	c0-1.4,0.5-2.9,1.2-4.1s2-2.2,3.4-2.9s3.1-0.9,4.8-0.9c2.7,0,4.5,0.7,6.3,2c1.4,1.2,2.7,2.7,3.1,4.3l-4.8,2
	c-0.2-0.9-0.7-1.6-1.4-2.2c-0.7-0.7-1.6-0.9-2.9-0.9c-1.2,0-2.2,0.2-2.9,0.7s-1.2,1.2-1.2,2.2c0,0.9,0.5,1.6,1.2,2.2
	c0.7,0.7,2,1.2,3.6,1.6l2,0.7c2.4,0.9,4.3,2,5.8,3.4s2,3.4,2,5.5c0,2-0.5,3.4-1.4,4.8s-2.2,2.2-3.8,2.9c-1.4,0.7-3.1,0.9-4.8,0.9
	C211.4,275.6,209,274.9,207.1,273.5z"/>
<path class="st1" d="M232.3,274.9c-0.9-0.2-1.4-0.7-2.2-1.2c-1.2-1.2-2-2.9-2-5v-9.3h-3.6v-4.5h3.6V249h5.2v5.8h5v4.5h-5v8.4
	c0,0.9,0.2,1.6,0.7,2.2c0.5,0.5,0.9,0.7,2,0.7c0.5,0,0.9,0,1.2-0.2c0.2-0.2,0.7-0.5,1.2-0.7v5c-1.2,0.5-2.4,0.7-3.6,0.7
	C233.9,275.3,233,275.1,232.3,274.9z"/>
<path class="st1" d="M245,274.2c-1.6-0.9-2.9-2.2-3.8-3.8c-0.9-1.6-1.4-3.6-1.4-5.5c0-2,0.5-3.8,1.4-5.5c0.9-1.6,2.2-3.1,3.8-4.1
	c1.6-0.9,3.4-1.4,5.2-1.4c2.2,0,3.8,0.5,5.5,1.4c1.6,0.9,2.7,2.2,3.6,3.8c0.7,1.6,1.2,3.4,1.2,5.2c0,0.7,0,1.2-0.2,1.6H245
	c0.2,1.6,0.9,2.9,2,3.6c0.9,0.9,2.2,1.2,3.6,1.2c1.2,0,2.2-0.2,3.1-0.7c0.9-0.5,1.6-1.2,2.2-2.2l4.3,2.2c-2.2,3.6-5.2,5.5-9.7,5.5
	C248.4,275.6,246.7,275.1,245,274.2z M255.4,262.2c0-0.7-0.2-1.2-0.7-2c-0.5-0.7-0.9-1.2-1.6-1.6s-1.6-0.7-2.7-0.7
	c-1.2,0-2.4,0.5-3.1,1.2c-0.9,0.7-1.4,1.6-2,2.9h10.1V262.2z"/>
<path class="st1" d="M263.5,273.7c-1.4-1.2-2.2-2.9-2.2-5c0-1.4,0.5-2.7,1.2-3.6s1.6-2,2.9-2.4c1.2-0.5,2.7-0.9,4.1-0.9
	c2.2,0,3.8,0.2,5.5,0.9v-0.9c0-1.2-0.5-2-1.2-2.7c-0.9-0.7-2-0.9-3.4-0.9c-0.9,0-2,0.2-2.9,0.7s-1.6,0.9-2.2,1.6l-3.6-2.7
	c0.9-1.2,2.2-2.2,3.8-2.9c1.4-0.7,3.1-0.9,4.8-0.9c3.1,0,5.5,0.7,7.2,2.2c1.6,1.4,2.4,3.6,2.4,6.3v12.7h-5.2V273h-0.2
	c-0.7,0.7-1.4,1.4-2.4,2c-0.9,0.5-2.2,0.7-3.6,0.7C266.6,275.6,264.7,274.9,263.5,273.7z M273.6,270.1c0.9-0.9,1.4-2.2,1.4-3.4
	c-1.4-0.7-2.9-0.9-4.3-0.9c-2.7,0-4.1,0.9-4.1,3.1c0,0.7,0.2,1.4,0.9,2c0.5,0.5,1.4,0.7,2.7,0.7C271.6,271.5,272.9,271,273.6,270.1z
	"/>
<path class="st1" d="M282.9,254.5h5v2.7h0.2c0.7-0.9,1.4-1.6,2.7-2.4c1.2-0.7,2.4-0.9,3.6-0.9c1.4,0,2.7,0.2,3.8,0.9
	c0.9,0.7,2,1.4,2.4,2.7c0.7-0.9,1.6-2,2.7-2.7c1.2-0.7,2.7-0.9,4.1-0.9c2.4,0,4.1,0.7,5.2,2.2c1.2,1.4,2,3.4,2,5.8v13.3h-5.2V263
	c0-1.2-0.2-2.2-0.9-2.9c-0.7-0.7-1.4-0.9-2.4-0.9c-1.4,0-2.4,0.5-3.4,1.6c-0.9,1.2-1.2,2.4-1.2,4.3v10.4h-5.2v-12.2
	c0-1.2-0.2-2.2-0.9-2.9c-0.7-0.7-1.4-0.9-2.7-0.9c-1.2,0-2.4,0.5-3.1,1.6c-0.7,1.2-1.2,2.4-1.2,4.3v10.4h-5.2
	C282.9,275.3,282.9,254.5,282.9,254.5z"/>
<path class="st1" d="M322.8,246.1H333c2,0,3.6,0.5,5,1.2s2.7,2,3.6,3.1c0.9,1.4,1.2,2.9,1.2,4.8c0,2-0.5,3.4-1.2,4.8
	c-0.9,1.4-2,2.4-3.6,3.1c-1.4,0.7-3.1,1.2-5,1.2h-4.8v10.6h-5.5V246h0.1L322.8,246.1L322.8,246.1z M333.2,259.3
	c1.4,0,2.4-0.5,3.1-1.2s1.2-1.6,1.2-2.9c0-1.3-0.5-2-1.2-2.7s-2-1.2-3.1-1.2h-4.8v7.9h4.8V259.3z"/>
<path class="st1" d="M346.3,273.5c-1.2-1.4-2-3.6-2-6.5v-12.4h5.2v11.8c0,1.4,0.2,2.4,0.9,3.4c0.7,0.7,1.4,1.2,2.7,1.2
	c1.4,0,2.7-0.5,3.6-1.6c0.9-1.2,1.4-2.4,1.4-4.1v-10.6h5.2v20.4h-5v-2.7h-0.2c-0.7,0.9-1.4,1.6-2.7,2.4c-1.2,0.5-2.4,0.9-3.6,0.9
	C349.7,275.6,347.8,274.9,346.3,273.5z"/>
<path class="st1" d="M366.8,246.1h5.2V275h-5.2V246.1z"/>
<path class="st1" d="M376.8,274.2c-1.4-0.9-2.7-2.4-3.1-4.1l4.8-2.2c0.5,0.9,0.9,1.6,2,2.2c0.7,0.5,1.6,0.7,2.7,0.7
	c0.9,0,1.6-0.2,2.4-0.5c0.7-0.2,0.9-0.7,0.9-1.4s-0.2-1.2-0.9-1.4c-0.5-0.2-1.4-0.7-2.7-0.9l-2.4-0.5c-1.6-0.5-3.1-1.2-4.1-2.2
	c-0.9-0.9-1.6-2.4-1.6-4.1c0-1.2,0.2-2.2,0.9-3.1c0.7-0.9,1.6-1.6,2.9-2.2c1.2-0.5,2.7-0.7,4.1-0.7c4.3,0,7,1.4,8.4,4.5l-4.3,2
	c-0.7-1.4-2.2-2.2-3.8-2.2c-0.9,0-1.6,0.2-2.2,0.5c-0.5,0.2-0.7,0.7-0.7,1.2c0,0.9,0.9,1.6,2.7,2.2l3.1,0.7c2,0.5,3.6,1.2,4.5,2.4
	c0.9,0.9,1.4,2.4,1.4,3.8c0,1.2-0.5,2.4-1.2,3.4c-0.7,0.9-2,1.6-3.1,2.4c-1.4,0.5-2.9,0.9-4.3,0.9
	C380.4,275.6,378.6,275.1,376.8,274.2z"/>
<path class="st1" d="M397.8,274.2c-1.6-0.9-2.9-2.2-3.8-3.8c-0.9-1.6-1.4-3.6-1.4-5.5c0-2,0.5-3.8,1.4-5.5c0.9-1.6,2.2-3.1,3.8-4.1
	c1.6-0.9,3.4-1.4,5.2-1.4c2.2,0,3.8,0.5,5.5,1.4c1.6,0.9,2.7,2.2,3.4,3.8c0.7,1.6,1.2,3.4,1.2,5.2c0,0.7,0,1.2-0.2,1.6h-15.4
	c0.2,1.6,0.9,2.9,2,3.6c0.9,0.9,2.2,1.2,3.6,1.2c1.2,0,2.2-0.2,3.1-0.7s1.6-1.2,2.2-2.2l4.3,2.2c-2.2,3.6-5.2,5.5-9.7,5.5
	C401.1,275.6,399.2,275.1,397.8,274.2z M408.1,262.2c0-0.7-0.2-1.2-0.7-2c-0.5-0.7-0.9-1.2-1.6-1.6s-1.6-0.7-2.7-0.7
	c-1.2,0-2.4,0.5-3.1,1.2c-0.9,0.7-1.4,1.6-2,2.9h10.1L408.1,262.2L408.1,262.2z"/>
<path class="st1" d="M307.5,77.3c-42.5,0-76.8,34.4-76.8,76.8s34.4,76.8,76.8,76.8s76.8-34.4,76.8-76.8S349.9,77.3,307.5,77.3z
	 M293.5,127.7c0-0.7,0.5-1.2,1.2-1.2h16.5c0.7,0,1.2,0.5,1.2,1.2v2.9c0,0.7-0.5,1.2-1.2,1.2h-9.9c-0.7,0-1.2,0.5-1.2,1.2v11.8
	c0,0.7,0.5,1.2,1.2,1.2h8.1c0.7,0,1.2,0.5,1.2,1.2v3.4c0,0.7-0.5,1.2-1.2,1.2h-8.1c-0.7,0-1.2,0.5-1.2,1.2v12.7
	c0,0.7,0.5,1.2,1.2,1.2h9.7c0.7,0,1.2,0.5,0.9,1.2l-0.7,3.6c-0.2,0.7-0.7,1.2-1.4,1.2h-15.1c-0.7,0-1.2-0.5-1.2-1.2V127.7z
	 M268.9,127.7c0-0.7,0.5-1.2,1.2-1.2h19.7c0.7,0,1.2,0.5,1.2,1.2v3.4c0,0.7-0.5,1.2-1.2,1.2h-5.2c-0.7,0-1.2,0.5-1.2,1.2v38.4
	c0,0.7-0.5,1.2-1.2,1.2H278c-0.7,0-1.2-0.5-1.2-1.2v-38.4c0-0.7-0.5-1.2-1.2-1.2h-5.5c-0.7,0-1.2-0.5-1.2-1.2L268.9,127.7
	C268.9,127.7,268.9,127.7,268.9,127.7z M243.8,127.7c0-0.7,0.5-1.2,1.2-1.2h19.7c0.7,0,1.2,0.5,1.2,1.2v11.5c0,0.7-0.5,1.2-1.2,1.2
	v0.2h-4.1c-0.7,0-1.2-0.5-1.2-1.2v-6.5c0-0.7-0.5-1.2-1.2-1.2h-7c-0.7,0-1.2,0.5-1.2,1.2v6.5c0,0.7,0.5,1.6,0.9,2.2l14,14
	c0.5,0.5,0.9,1.4,0.9,2.2v14.4c0,0.7-0.5,1.2-1.2,1.2h-19.5c-0.7,0-1.2-0.5-1.2-1.2v-12.9c0-0.7,0.5-1.2,1.2-1.2h4.1
	c0.7,0,1.2,0.5,1.2,1.2v7.2c0,0.7,0.5,1.2,1.2,1.2h6.7c0.7,0,1.2-0.5,1.2-1.2v-7c0-0.7-0.5-1.6-0.9-2.2l-14-14
	c-0.5-0.5-0.9-1.4-0.9-2.2v-13.5h0.1V127.7z M371.1,180c0,0.7-0.5,1.2-1.2,1.2h-21.6c-0.5,0-1.2,0.5-1.4,1.2l-2.9,10.4
	c0,0.7-0.7,1.2-1.4,1.2h-2.4c-0.7,0-1.2-0.5-1.4-1.2l-5.5-27.6c-0.2-0.7-0.7-1.2-1.4-1.2h-5.8c-0.7,0-1.2-0.5-0.9-1.2l0.7-3.1
	c0.2-0.7,0.7-1.2,1.4-1.2h3.8c0.7,0,1.2-0.5,0.9-1.2l-4.3-21.9c-0.2-0.7-0.2-0.7-0.5,0l-12.9,64.1c-0.2,0.7-0.7,1.2-1.4,1.2h-2.6
	c-0.5,0-1.2-0.5-1.4-1.2l-4.5-17.1c0-0.7-0.7-1.2-1.4-1.2h-57.8c-0.7,0-1.2-0.5-1.2-1.2v-2.7c0-0.7,0.5-1.2,1.2-1.2h61.4
	c0.5,0,1.2,0.5,1.4,1.2l3.1,11.1c0,0.7,0.2,0.7,0.5,0l12-60.7c0.2-0.7,0.7-1.2,1.4-1.2h4.8c0.7,0,1.2,0.5,1.4,1.2l9.9,52.8
	c0.2,0.7,0.5,0.7,0.7,0l1.2-3.1c0.2-0.7,0.9-1.2,1.6-1.2h25c0.7,0,1.2,0.5,1.2,1.2v2.6L371.1,180L371.1,180z M369.8,172.8h-4.3
	c-0.7,0-1.2-0.5-1.2-1.2v-25.2c0-0.7,0-0.7-0.2,0l-5.5,21.2c0,0.7-0.7,1.2-1.4,1.2h-0.5c-0.5,0-1.2-0.5-1.4-1.2l-5.5-20.9
	c0-0.7-0.2-0.7-0.2,0v25c0,0.7-0.5,1.2-1.2,1.2h-3.6c-0.7,0-1.2-0.5-1.2-1.2v-44c0-0.7,0.5-1.2,1.2-1.2h3.6c0.5,0,1.2,0.5,1.4,1.2
	l7.2,24.8c0.2,0.7,0.5,0.7,0.7,0l7-24.8c0-0.7,0.7-1.2,1.4-1.2h3.8c0.7,0,1.2,0.5,1.2,1.2v44C371.1,172.4,370.7,172.8,369.8,172.8z"
	/>
</svg>
